<?xml version="1.0" encoding="UTF-8"?>
<svg width="752pt" height="752pt" version="1.1" viewBox="0 0 752 752" xmlns="http://www.w3.org/2000/svg">
  <defs>
    <clipPath id="a">
      <path d="m191 139.21h370v473.58h-370z"/>
    </clipPath>
  </defs>
  <path d="m252.07 503.2v-65.738h32.324c9.1914 0 15.613 1.9961 19.297 6.0078 3.6719 4.0117 5.5039 11.055 5.5039 21.09 0 16.414-1.4805 26.965-4.4258 31.625-2.9609 4.6758-9.6211 7-19.992 7h-32.707zm12.461-10.492h17.789c5.9805 0 9.8398-1.375 11.59-4.1289 1.7461-2.7383 2.6211-8.8047 2.6211-18.188 0-9.6953-0.78516-15.863-2.3672-18.5-1.5703-2.6328-5.2695-3.9375-11.07-3.9375h-18.562z"/>
  <path d="m345.6 436.87c11.941 0 19.641 1.9844 23.074 5.9492 3.4336 3.9648 5.1484 12.832 5.1484 26.609 0 15.066-1.7148 24.551-5.1797 28.473-3.4648 3.9062-11.809 5.875-25.07 5.875-11.941 0-19.668-1.9258-23.16-5.8008-3.5078-3.8633-5.2539-12.371-5.2539-25.559 0-15.672 1.7148-25.5 5.1484-29.523 3.4492-4.0117 11.871-6.0234 25.293-6.0234zm-0.96094 10.699c-8.375 0-13.273 1.0664-14.68 3.2266-1.4062 2.1445-2.1172 9.6055-2.1172 22.363 0 9.4414 0.82812 15.125 2.4727 17.051 1.6445 1.9258 6.5273 2.9023 14.605 2.9023 7.7539 0 12.371-1.0938 13.926-3.2578 1.5391-2.1602 2.3086-8.7461 2.3086-19.727 0-11.012-0.72656-17.523-2.1914-19.52-1.4492-2.0312-6.2266-3.0391-14.324-3.0391z"/>
  <path d="m422.87 479.75h12.52v2.25c0 9.1602-1.6719 15.066-5.0039 17.758-3.3438 2.6953-10.73 4.0117-22.156 4.0117-12.965 0-20.957-2.1172-23.93-6.3477-2.9883-4.2344-4.4688-15.57-4.4688-34.008 0-10.848 2.0273-17.98 6.0664-21.414 4.0391-3.418 12.504-5.1211 25.383-5.1211 9.3828 0 15.645 1.4062 18.781 4.2188s4.7227 8.3906 4.7227 16.754l0.058594 1.4805h-12.52v-1.6875c0-4.3047-0.8125-7.0586-2.4414-8.2734-1.6133-1.1992-5.3281-1.8047-11.098-1.8047-7.7383 0-12.371 0.94531-13.941 2.8398-1.5703 1.8945-2.3398 7.5195-2.3398 16.855 0 12.594 0.69531 20.039 2.1016 22.363 1.375 2.3086 5.9062 3.4648 13.555 3.4648 6.1992 0 10.211-0.65234 12.062-1.9258 1.8516-1.2891 2.7656-4.1133 2.7656-8.4805z"/>
  <path d="m498.64 437.46-19.742 31.832 21.043 33.922h-14.637l-9.4414-15.789c-1.4492-2.4414-2.8281-4.9141-4.1445-7.4297l-1.3477-2.5898-1.3906-2.5586h-0.19141l-1.3906 2.5898c-1.6719 3.1523-3.5664 6.4805-5.6836 9.9766l-9.4883 15.789h-15.02l21.578-33.922-20.039-31.832h14.887l8.7617 14.637c1.375 2.3086 2.6953 4.5859 3.9062 6.8359l1.2148 2.3242 1.1992 2.3086h0.19141c0.53125-1.0352 0.93359-1.8047 1.1992-2.3086l1.1992-2.2656c1.0352-1.9844 2.3086-4.2617 3.8633-6.8359l8.7617-14.68z"/>
  <g clip-path="url(#a)">
    <path d="m560.99 612.79h-369.98v-473.58h369.98zm-362.58-7.4023h355.19v-458.78h-355.19z"/>
  </g>
</svg>
