<?xml version="1.0" encoding="UTF-8"?>
<svg width="752pt" height="752pt" version="1.1" viewBox="0 0 752 752" xmlns="http://www.w3.org/2000/svg">
  <defs>
    <clipPath id="a">
      <path d="m191 139.21h370v473.58h-370z"/>
    </clipPath>
  </defs>
  <path d="m286.96 314.12c1.8516 0.26562 4.2266 0.39844 6.875 0.39844 11.883 0 22.059-2.9023 28.918-9.375 5.2891-5.0156 8.1992-12.418 8.1992-21.133 0-8.7188-3.8242-16.109-9.5156-20.609-5.9336-4.75-14.793-7.1328-27.203-7.1328-12.289 0-21.008 0.79297-27.207 1.8516v87.832h19.941v-31.832zm0-41.867c1.4492-0.39844 4.2266-0.79297 8.3242-0.79297 10.035 0 15.719 4.8906 15.719 13.074 0 9.1172-6.6016 14.531-17.309 14.531-2.9023 0-5.0078-0.125-6.7344-0.52344z"/>
  <path d="m406.41 335.39c8.582-7.2656 14.793-19.016 14.793-36.066 0-15.719-5.8086-26.676-15.059-33.543-8.582-6.4766-19.543-9.5156-36.449-9.5156-10.176 0-19.824 0.66016-27.207 1.8516v87.441c5.0078 0.66016 12.41 1.3242 22.844 1.3242 17.422 0 31.695-3.6992 41.078-11.492zm-43.727-62.875c1.7109-0.39062 4.6172-0.79297 9.1094-0.79297 17.309 0 28.133 9.7734 28.008 28.266 0 21.266-11.898 31.309-30.117 31.176-2.5156 0-5.2891 0-7-0.39844z"/>
  <path d="m453.36 310.17h31.965v-16.383h-31.965v-20.344h34.199v-16.508h-54.41v89.023h20.211z"/>
  <g clip-path="url(#a)">
    <path d="m560.99 139.21h-369.98v473.58h369.98zm-7.3984 466.18h-355.18v-458.78h355.19z"/>
  </g>
  <path d="m244.98 442.07h261.11v7.3984h-261.11z"/>
  <path d="m244.98 478.35h261.11v7.3984h-261.11z"/>
  <path d="m244.98 514.64h261.11v7.3984h-261.11z"/>
</svg>
