<?xml version="1.0" encoding="UTF-8"?>
    <svg width="752pt" height="752pt" version="1.1" viewBox="0 0 752 752" xmlns="http://www.w3.org/2000/svg">
      <defs>
        <clipPath id="a">
          <path d="m191 139.21h370v473.58h-370z"/>
        </clipPath>
      </defs>
      <path d="m263.05 342.03 6.7852-14.793c2.5469-5.6914 4.6016-9.9297 6.3047-14.66h0.24609c2.3008 4.7344 4.2383 8.9688 7.2734 14.66l7.3906 14.793h21.324l-24.242-41.809 23.027-39.863h-21.082l-6.9023 14.895c-2.0664 4.7344-3.6328 8.3672-5.5781 13.57h-0.23828c-1.9375-4.6016-3.75-8.6055-6.1875-13.57l-7.1406-14.895h-21.207l22.777 40.344-23.629 41.32h21.078z"/>
      <path d="m372.09 326.52h-32.477v-66.16h-18.527v81.672h51.004z"/>
      <path d="m402.86 328.09c-7.8789 0-15.512-2.5391-20.477-5.0898l-3.75 15.273c4.6016 2.5391 13.809 4.957 23.133 4.957 22.414 0 32.965-11.625 32.965-25.32 0-11.508-6.7852-19.023-21.207-24.352-10.539-4.0039-15.148-6.3047-15.148-11.52 0-4.2383 3.8711-7.875 11.875-7.875 7.9922 0 13.809 2.3008 17.078 3.8867l4.1211-14.91c-4.8398-2.1836-11.625-4.1211-20.832-4.1211-19.262 0-30.902 10.656-30.902 24.598 0 11.875 8.8438 19.379 22.414 24.117 9.8203 3.5078 13.688 6.4219 13.688 11.508 0 5.3398-4.4844 8.8477-12.957 8.8477z"/>
      <path d="m509.11 260.36h-21.082l-6.9023 14.895c-2.0664 4.7344-3.6328 8.3672-5.5781 13.57h-0.23828c-1.9375-4.6016-3.75-8.6055-6.1875-13.57l-7.1406-14.895h-21.207l22.777 40.344-23.629 41.32h21.082l6.7852-14.793c2.5469-5.6914 4.6016-9.9297 6.3047-14.66h0.24609c2.3008 4.7344 4.2383 8.9688 7.2734 14.66l7.3906 14.793h21.324l-24.242-41.809z"/>
      <g clip-path="url(#a)">
        <path d="m191.01 612.79h369.98v-473.58h-369.98zm7.4023-466.18h355.19v458.78h-355.19z"/>
      </g>
      <path d="m244.98 442.07h261.1v7.3984h-261.1z"/>
      <path d="m244.98 478.36h261.1v7.3984h-261.1z"/>
      <path d="m244.98 514.64h261.1v7.3984h-261.1z"/>
    </svg>

